<svg version="1.1" id="Capa_1" xmlns="http://www.w3.org/2000/svg" xmlns:xlink="http://www.w3.org/1999/xlink" x="0px" y="0px"
	 viewBox="0 0 511.988 511.988" fill="white" xml:space="preserve">
	<g>
		<g>
			<path d="M328.372,113.31c17.344-21.675,17.344-55.616,0-77.291c-3.691-4.608-10.368-5.376-14.997-1.664
				c-4.608,3.691-5.355,10.389-1.664,14.997c10.987,13.717,10.987,36.907-0.021,50.667c-17.365,21.675-17.365,55.616,0,77.291
				c2.112,2.645,5.205,4.011,8.341,4.011c2.325,0,4.693-0.768,6.656-2.347c4.608-3.691,5.355-10.411,1.664-14.997
				C317.343,150.259,317.343,127.07,328.372,113.31z"/>
		</g>
	</g>
	<g>
		<g>
			<path d="M264.287,113.31c17.365-21.675,17.365-55.616,0-77.291c-3.669-4.608-10.389-5.355-14.997-1.664
				c-4.608,3.691-5.355,10.411-1.664,14.997c11.008,13.717,11.008,36.907-0.021,50.667c-17.344,21.675-17.344,55.616,0,77.291
				c2.112,2.645,5.205,4.011,8.341,4.011c2.325,0,4.672-0.768,6.656-2.347c4.608-3.691,5.355-10.389,1.664-14.997
				C253.279,150.259,253.279,127.07,264.287,113.31z"/>
		</g>
	</g>
	<g>
		<g>
			<path d="M200.372,113.331c17.344-21.675,17.344-55.616,0-77.291c-3.669-4.608-10.368-5.376-14.997-1.664
				c-4.587,3.669-5.333,10.389-1.664,14.976c10.987,13.717,10.987,36.907-0.021,50.667c-17.365,21.675-17.365,55.616,0,77.291
				c2.112,2.645,5.205,4.011,8.341,4.011c2.325,0,4.693-0.768,6.656-2.325c4.608-3.691,5.355-10.411,1.664-14.997
				C189.343,150.259,189.343,127.091,200.372,113.331z"/>
		</g>
	</g>
</svg>