<?xml version="1.0"?>
<svg xmlns="http://www.w3.org/2000/svg"  x="0" y="0" viewBox="0 0 497 497">
  <g>
      <g>
        <path d="m65 178.5v133.47c-8.96-5.2-15-14.89-15-25.97 0-11.03-8.97-20-20-20h-20v-87.56c0-14.27 10.06-22.85 18.51-25.93 2.82-.97 5.84-1.51 8.99-1.51 15.19 0 27.5 12.31 27.5 27.5z" fill="#fcbf49" data-original="#8e868e" style="" class=""/>
      </g>
      <path d="m182 181h-61c-8.837 0-14.734 7.621-14.734 16.457l.128 13.543h89.362l2.244-13v-1c0-8.836-7.163-16-16-16z" fill="#fcbf49" data-original="#9e959e" style="" class=""/>
      <path d="m198 198v13l-48.202 4.585-44.798-4.585v-14c0-7.9 5.72-14.46 13.24-15.76-.16.9-.24 1.82-.24 2.76v9c0 2.76 2.24 5 5 5z" fill="#fcbf49" data-original="#8e868e" style="" class=""/>
      <path d="m376 181h-61c-8.837 0-14.734 7.621-14.734 16.457l.128 13.543h89.362l2.244-13v-1c0-8.836-7.163-16-16-16z" fill="#fcbf49" data-original="#9e959e" style="" class=""/>
      <path d="m392 198v13l-48.202 4.585-44.798-4.585v-14c0-7.9 5.72-14.46 13.24-15.76-.16.9-.24 1.82-.24 2.76v9c0 2.76 2.24 5 5 5z" fill="#fcbf49" data-original="#8e868e" style="" class=""/>
      <g>
        <g fill="#9e959e">
          <path d="m37.5 161c-3.15 0-6.172.537-8.99 1.511v-.001c-8.461 3.08-18.539 11.688-18.51 25.99l2.819 126.149c0 11.393 4.105 25.016 13.976 29.19 3.29 1.392 6.908 2.161 10.705 2.161 14.815-.211 27.326-11.902 27.5-27.5v-6.53l-1.883-15.704 1.883-107.766c0-15.188-12.312-27.5-27.5-27.5z" fill="#fcbf49" data-original="#9e959e" style="" class=""/>
          <path d="m459.5 161c-1.97.027-4.92.29-8.99 1.511v-.001c-8.461 3.08-18.539 11.688-18.51 25.99l1.585 127.426c0 11.392 5.339 23.739 15.21 27.914 3.29 1.391 6.908 2.161 10.705 2.161 14.815-.211 27.326-11.902 27.5-27.5v-52.501l-2.181-7.096 2.181-70.404c0-15.188-12.312-27.5-27.5-27.5z" fill="#fcbf49" data-original="#9e959e" style="" class=""/>
        </g>
        <g fill="#8e868e">
          <path d="m469.346 162.822c.001-.001.003-.001.004-.002-6.564-2.187-9.97-2.562-18.84-.31-8.45 3.08-18.51 11.66-18.51 25.93v123.53 6.53c0 11.47 7.02 21.3 17 25.42v-59.526c0-9.553 7.279-17.798 16.816-18.359.392-.023.787-.035 1.184-.035h20v-77.5c0-11.719-7.33-21.717-17.654-25.678z" fill="#fcbf49" data-original="#8e868e" style="" class=""/>
          <path d="m46.115 162.384c-5.677-1.714-10.236-2.024-17.605.126-8.45 3.08-18.51 11.66-18.51 25.93v77.56 52.5c0 11.47 7.02 21.3 17 25.42v-73.955c0-2.41 2.113-4.248 4.507-3.973 9.715 1.115 18.538 9.354 18.493 20.008 0 11.08 6.04 20.77 15 25.97v-123.47c0-12.179-7.917-22.5-18.885-26.116z" fill="#fcbf49" data-original="#8e868e" style="" class=""/>
        </g>
      </g>
      <path d="m459.5 151c-20.047-.087-37.61 16.769-37.5 37.5v17.5c0 2.761-2.239 5-5 5h-161.5l-7.5 3.053-7.5-3.053h-160.5c-2.761 0-5-2.239-5-5v-17.5c0-18.122-12.854-33.241-29.942-36.738-2.441-.5-4.969.93-7.558.93-20.711 0-36.085 15.204-36.085 35.915l.681 49.893c0 5.523 4.477 10 10 10l2.904 2.5h15c2.073 0 4.104.18 6.078.526 6.361 1.114 13.078 2.899 17.762 6.953 7.415 6.418 11.809 16.126 11.809 26.702 0 8.284 6.716 15 15 15l64.184-.9c7.633 0 15.196-1.457 22.284-4.291l32.378-12.559c4.725-1.89 9.767-2.861 14.856-2.861l34.149.356 34.059-.356c5.089 0 10.131.971 14.855 2.861l32.27 12.523c7.087 2.835 14.65 4.291 22.284 4.291l63.745.17c8.284 0 16.287-5.131 16.287-13.415 0-19.33 15.67-35 35-35h20c5.523 0 10-4.477 10-10v-52.5c0-20.711-16.789-37.5-37.5-37.5z" fill="#fcbf49" data-original="#7bb1ff" style="" class=""/>
      <g fill="#60a5ea">
        <path d="m45 151.75c-7.35 1.49-13.91 5.13-19.02 10.23-6.78 6.79-10.98 16.16-10.98 26.52v62.5h-5c-5.52 0-10-4.48-10-10v-52.5c0-10.36 4.2-19.73 10.98-26.52 6.79-6.78 16.16-10.98 26.52-10.98 2.57 0 5.08.26 7.5.75z" fill="#fcbf49" data-original="#60a5ea" style="" class=""/>
        <path d="m351.8 286c-5.75 0-11.37-1.08-16.71-3.22l-32.12-12.85c-6.52-2.61-13.39-3.93-20.42-3.93h-68.1c-7.03 0-13.9 1.32-20.42 3.93l-32.12 12.85c-5.34 2.14-10.96 3.22-16.71 3.22h-59.633c-2.954 0-5.488-2.148-5.92-5.07-2.435-16.463-17.145-30.011-34.647-29.93h-15c12.838.182 25.427 7.32 31.305 19.351 2.171 4.592 3.687 9.306 3.695 15.649 0 4.14 1.68 7.89 4.4 10.6 2.71 2.72 6.46 4.4 10.6 4.4h15 50.19c7.64 0 15.2-1.46 22.29-4.29l32.12-12.85c4.72-1.89 9.76-2.86 14.85-2.86h26.05l7.5-2.479 7.5 2.479h27.05c5.09 0 10.13.97 14.85 2.86l32.12 12.85c7.09 2.83 14.65 4.29 22.29 4.29h65.19c8.28 0 15-6.72 15-15z" fill="#fcbf49" data-original="#60a5ea" style="" class=""/>
        <path d="m467.04 151.76c-16.75 3.48-30.14 18.63-30.04 36.74v17.5c0 2.76-2.24 5-5 5h-15c2.76 0 5-2.24 5-5v-17.5c-.11-20.73 17.45-37.59 37.5-37.5 2.58 0 5.1.26 7.54.76z" fill="#fcbf49" data-original="#60a5ea" style="" class=""/>
      </g>
      <g>
        <path d="m373.5 256h-250c-4.143 0-7.5-3.358-7.5-7.5s3.357-7.5 7.5-7.5h250c4.143 0 7.5 3.358 7.5 7.5s-3.357 7.5-7.5 7.5z" fill="#fcbf49" data-original="#f8f7f7" style="" class=""/>
      </g>
      <path d="m134.607 271h-22.399c-4.304 0-8.126-2.754-9.487-6.838l-3.333-10c-2.158-6.475 2.661-13.162 9.487-13.162h67.125l-14.505 17.406c-6.65 7.98-16.501 12.594-26.888 12.594z" fill="#fcbf49" data-original="#f8f7f7" style="" class=""/>
      <path d="m362.393 271h22.399c4.304 0 8.126-2.754 9.487-6.838l3.333-10c2.158-6.475-2.661-13.162-9.487-13.162h-67.125l14.505 17.406c6.65 7.98 16.501 12.594 26.888 12.594z" fill="#fcbf49" data-original="#f8f7f7" style="" class=""/>
      <g>
        <path d="m255.5 211v70l-7.5-3.245-7.5 3.245v-70z" fill="#fcbf49" data-original="#f8f7f7" style="" class=""/>
      </g>
      <g>
        <path d="m240.5 266h15v15h-15z" fill="#fcbf49" data-original="#e8e8e8" style="" class=""/>
      </g>
  </g>
</svg>
