<svg width="359" height="228" viewBox="0 0 359 228" fill="none" xmlns="http://www.w3.org/2000/svg">
<g clip-path="url(#clip0)">
<path d="M29.8189 81.8873V143.117C25.7085 140.732 22.9376 136.286 22.9376 131.203C22.9376 126.143 18.8226 122.028 13.7626 122.028H4.58752V81.8598C4.58752 75.3134 9.20258 71.3773 13.079 69.9643C14.3727 69.5194 15.7581 69.2716 17.2032 69.2716C24.1717 69.2716 29.8189 74.9189 29.8189 81.8873Z" fill="#FCBF49"/>
<path d="M83.493 83.0342H55.509C51.4551 83.0342 48.7498 86.5304 48.7498 90.5839L48.8085 96.7968H89.8036L90.833 90.833V90.3743C90.833 86.3207 87.547 83.0342 83.493 83.0342Z" fill="#FCBF49"/>
<path d="M90.833 90.833V96.7968L68.7202 98.9002L48.169 96.7968V90.3742C48.169 86.7501 50.7931 83.7407 54.2429 83.1443C54.1695 83.5572 54.1328 83.9792 54.1328 84.4105V88.5392C54.1328 89.8054 55.1604 90.833 56.4266 90.833H90.833Z" fill="#FCBF49"/>
<path d="M172.491 83.0342H144.507C140.453 83.0342 137.748 86.5304 137.748 90.5839L137.807 96.7968H178.802L179.831 90.833V90.3743C179.831 86.3207 176.545 83.0342 172.491 83.0342Z" fill="#FCBF49"/>
<path d="M179.831 90.833V96.7968L157.718 98.9002L137.167 96.7968V90.3742C137.167 86.7501 139.791 83.7407 143.241 83.1443C143.167 83.5572 143.131 83.9792 143.131 84.4105V88.5392C143.131 89.8054 144.158 90.833 145.425 90.833H179.831Z" fill="#FCBF49"/>
<path d="M17.2032 73.8593C15.7581 73.8593 14.3718 74.1057 13.079 74.5525V74.552C9.19753 75.965 4.57422 79.9139 4.58752 86.475L5.88075 144.346C5.88075 149.573 7.76392 155.822 12.2923 157.737C13.8016 158.376 15.4613 158.729 17.2032 158.729C23.9996 158.632 29.7391 153.268 29.8189 146.113V143.117L28.9551 135.913L29.8189 86.475C29.8189 79.5075 24.1707 73.8593 17.2032 73.8593Z" fill="#FCBF49"/>
<path d="M210.797 73.8592C209.893 73.8715 208.54 73.9922 206.673 74.5523V74.5519C202.791 75.9648 198.168 79.9138 198.181 86.4749L198.908 144.932C198.908 150.158 201.357 155.822 205.886 157.737C207.395 158.376 209.055 158.729 210.797 158.729C217.593 158.632 223.333 153.269 223.412 146.113V122.028L222.412 118.773L223.412 86.4749C223.412 79.5073 217.764 73.8592 210.797 73.8592V73.8592Z" fill="#FCBF49"/>
<path d="M215.314 74.695C215.314 74.6945 215.315 74.6945 215.315 74.6941C212.304 73.6908 210.742 73.5188 206.673 74.5519C202.796 75.9648 198.181 79.9009 198.181 86.4473V143.117V146.113C198.181 151.375 201.402 155.884 205.98 157.774V130.466C205.98 126.084 209.319 122.302 213.694 122.044C213.874 122.034 214.055 122.028 214.237 122.028H223.412V86.4749C223.412 81.0987 220.05 76.5121 215.314 74.695V74.695Z" fill="#FCBF49"/>
<path d="M21.1554 74.4948C18.551 73.7085 16.4596 73.5662 13.079 74.5526C9.20258 75.9655 4.58752 79.9016 4.58752 86.448V122.029V146.113C4.58752 151.375 7.80797 155.885 12.3863 157.775V123.848C12.3863 122.742 13.3557 121.899 14.4539 122.025C18.9107 122.537 22.9583 126.316 22.9376 131.204C22.9376 136.287 25.7085 140.732 29.8189 143.118V86.4755C29.8189 80.8884 26.187 76.1536 21.1554 74.4948V74.4948Z" fill="#FCBF49"/>
<path d="M210.797 69.2716C201.6 69.2317 193.543 76.9645 193.594 86.4749V94.503C193.594 95.7696 192.566 96.7968 191.3 96.7968H117.211L113.771 98.1974L110.33 96.7968H36.7002C35.4336 96.7968 34.4064 95.7696 34.4064 94.503V86.4749C34.4064 78.1613 28.5096 71.2255 20.6705 69.6212C19.5507 69.3918 18.3909 70.0478 17.2032 70.0478C7.702 70.0478 0.649139 77.0227 0.649139 86.5239L0.96155 109.412C0.96155 111.946 3.01538 114 5.54907 114L6.88129 115.147H13.7626C14.7136 115.147 15.6453 115.229 16.5509 115.388C19.469 115.899 22.5504 116.718 24.6992 118.578C28.1009 121.522 30.1166 125.976 30.1166 130.828C30.1166 134.628 33.1976 137.709 36.9979 137.709L66.4425 137.296C69.9442 137.296 73.4137 136.628 76.6654 135.327L91.5188 129.566C93.6864 128.699 95.9995 128.253 98.3341 128.253L114 128.417L129.625 128.253C131.959 128.253 134.272 128.699 136.439 129.566L151.243 135.311C154.495 136.611 157.964 137.279 161.466 137.279L190.709 137.357C194.51 137.357 198.181 135.004 198.181 131.203C198.181 122.336 205.37 115.147 214.237 115.147H223.412C225.946 115.147 228 113.093 228 110.559V86.4749C228 76.9736 220.298 69.2716 210.797 69.2716V69.2716Z" fill="#FCBF49"/>
<path d="M20.6439 69.6159C17.272 70.2994 14.2626 71.9693 11.9184 74.3089C8.80805 77.4239 6.88129 81.7224 6.88129 86.475V115.147H4.58752C2.05521 115.147 0 113.092 0 110.56V86.475C0 81.7224 1.92676 77.4239 5.0371 74.3089C8.15203 71.1986 12.4505 69.2718 17.2032 69.2718C18.3822 69.2718 19.5337 69.3911 20.6439 69.6159Z" fill="#FCBF49"/>
<path d="M161.389 131.203C158.751 131.203 156.173 130.708 153.723 129.726L138.988 123.831C135.997 122.634 132.846 122.028 129.62 122.028H98.3795C95.1544 122.028 92.0028 122.634 89.0117 123.831L74.2766 129.726C71.8269 130.708 69.2487 131.203 66.6109 131.203H39.2541C37.8989 131.203 36.7364 130.218 36.5383 128.877C35.4212 121.325 28.6729 115.11 20.6439 115.147H13.7626C19.652 115.23 25.4273 118.505 28.1238 124.024C29.1198 126.131 29.8152 128.293 29.8189 131.203C29.8189 133.102 30.5896 134.823 31.8374 136.066C33.0806 137.314 34.801 138.085 36.7002 138.085H43.5815H66.6063C70.1111 138.085 73.5793 137.415 76.8319 136.116L91.567 130.221C93.7323 129.354 96.0444 128.909 98.3795 128.909H110.33L113.771 127.772L117.211 128.909H129.62C131.956 128.909 134.268 129.354 136.433 130.221L151.168 136.116C154.421 137.415 157.889 138.085 161.394 138.085H191.3C195.098 138.085 198.181 135.002 198.181 131.203H161.389Z" fill="#FCBF49"/>
<path d="M214.256 69.6203C206.572 71.2167 200.429 78.1668 200.475 86.4749V94.503C200.475 95.7692 199.447 96.7968 198.181 96.7968H191.3C192.566 96.7968 193.594 95.7692 193.594 94.503V86.4749C193.543 76.9649 201.599 69.2303 210.797 69.2716C211.98 69.2716 213.136 69.3909 214.256 69.6203Z" fill="#FCBF49"/>
<path d="M171.344 117.441H56.6559C54.7553 117.441 53.2153 115.9 53.2153 114C53.2153 112.1 54.7553 110.559 56.6559 110.559H171.344C173.245 110.559 174.785 112.1 174.785 114C174.785 115.9 173.245 117.441 171.344 117.441Z" fill="#FCBF49"/>
<path d="M61.7513 124.322H51.4757C49.5012 124.322 47.7479 123.059 47.1235 121.185L45.5945 116.597C44.6045 113.627 46.8152 110.559 49.9467 110.559H80.7404L74.0862 118.544C71.0355 122.205 66.5164 124.322 61.7513 124.322V124.322Z" fill="#FCBF49"/>
<path d="M166.249 124.322H176.524C178.499 124.322 180.252 123.059 180.876 121.185L182.406 116.597C183.396 113.627 181.185 110.559 178.053 110.559H147.26L153.914 118.544C156.964 122.205 161.484 124.322 166.249 124.322V124.322Z" fill="#FCBF49"/>
<path d="M117.211 96.7968V128.909L113.771 127.421L110.33 128.909V96.7968H117.211Z" fill="#FCBF49"/>
<path d="M110.33 122.028H117.211V128.909H110.33V122.028Z" fill="#FCBF49"/>
</g>
<line x1="241" y1="89" x2="315" y2="89" stroke="#FCBF49" stroke-width="10"/>
<path d="M241 114H358.5" stroke="#FCBF49" stroke-width="10"/>
<path d="M241 139H334.5" stroke="#FCBF49" stroke-width="10"/>
<defs>
<clipPath id="clip0">
<rect width="228" height="228" fill="white"/>
</clipPath>
</defs>
</svg>
